<svg width="18" height="18" viewBox="0 0 18 18" fill="none" xmlns="http://www.w3.org/2000/svg">
<path d="M0 2.11765C0 0.948103 0.948103 0 2.11765 0H5.29412C6.46366 0 7.41177 0.948103 7.41177 2.11765V5.29412C7.41177 6.46366 6.46366 7.41177 5.29412 7.41177H2.11765C0.948103 7.41177 0 6.46366 0 5.29412V2.11765Z" fill="#3448FF"/>
<path d="M0 11.6471C0 10.4775 0.948103 9.52941 2.11765 9.52941H5.29412C6.46366 9.52941 7.41177 10.4775 7.41177 11.6471V14.8235C7.41177 15.9931 6.46366 16.9412 5.29412 16.9412H2.11765C0.948103 16.9412 0 15.9931 0 14.8235V11.6471Z" fill="#3448FF"/>
<path d="M9.52941 2.11765C9.52941 0.948103 10.4775 0 11.6471 0H14.8235C15.9931 0 16.9412 0.948103 16.9412 2.11765V5.29412C16.9412 6.46366 15.9931 7.41177 14.8235 7.41177H11.6471C10.4775 7.41177 9.52941 6.46366 9.52941 5.29412V2.11765Z" fill="#3448FF"/>
<path d="M9.52941 11.6471C9.52941 10.4775 10.4775 9.52941 11.6471 9.52941H15.8824C17.0519 9.52941 18 10.4775 18 11.6471V15.8824C18 17.0519 17.0519 18 15.8824 18H11.6471C10.4775 18 9.52941 17.0519 9.52941 15.8824V11.6471Z" fill="#00DA71"/>
</svg>
