<svg width="22" height="22" viewBox="0 0 22 22" fill="none" xmlns="http://www.w3.org/2000/svg">
<rect width="22" height="22" rx="11" fill="#F5F7F9"/>
<path d="M16.25 11C16.25 13.8995 13.8995 16.25 11 16.25M16.25 11C16.25 8.1005 13.8995 5.75 11 5.75M16.25 11H5.75M11 16.25C8.1005 16.25 5.75 13.8995 5.75 11M11 16.25C11.9665 16.25 12.75 13.8995 12.75 11C12.75 8.1005 11.9665 5.75 11 5.75M11 16.25C10.0335 16.25 9.25 13.8995 9.25 11C9.25 8.1005 10.0335 5.75 11 5.75M5.75 11C5.75 8.1005 8.1005 5.75 11 5.75" stroke="#111B29" stroke-linecap="round" stroke-linejoin="round"/>
</svg>
