<svg width="22" height="22" viewBox="0 0 22 22" fill="none" xmlns="http://www.w3.org/2000/svg">
<path d="M11.0001 8.8C12.6708 8.8 14.0251 7.44566 14.0251 5.775C14.0251 4.10434 12.6708 2.75 11.0001 2.75C9.32944 2.75 7.9751 4.10434 7.9751 5.775C7.9751 7.44566 9.32944 8.8 11.0001 8.8Z" fill="#FF007A" fill-opacity="0.05"/>
<path d="M11.0001 8.8C12.6708 8.8 14.0251 7.44566 14.0251 5.775C14.0251 4.10434 12.6708 2.75 11.0001 2.75C9.32944 2.75 7.9751 4.10434 7.9751 5.775C7.9751 7.44566 9.32944 8.8 11.0001 8.8Z" stroke="#FF007A" stroke-width="1.5" stroke-miterlimit="10"/>
<path d="M2.4751 19.2501C2.4751 19.2501 3.92616 12.1132 7.63226 12.1132C11.3384 12.1132 13.9856 12.1132 13.9856 12.1132C13.9856 12.1132 18.0348 11.4672 19.5251 19.2501" fill="#FF007A" fill-opacity="0.05"/>
<path d="M2.4751 19.2501C2.4751 19.2501 3.92616 12.1132 7.63226 12.1132C11.3384 12.1132 13.9856 12.1132 13.9856 12.1132C13.9856 12.1132 18.0348 11.4672 19.5251 19.2501" stroke="#FF007A" stroke-width="1.5" stroke-miterlimit="10"/>
</svg>
